<?xml version="1.0" encoding="utf-8"?>
<!-- Generator: Adobe Illustrator 25.3.1, SVG Export Plug-In . SVG Version: 6.00 Build 0)  -->
<svg version="1.1" id="圖層_1" xmlns:serif="http://www.serif.com/"
	 xmlns="http://www.w3.org/2000/svg" xmlns:xlink="http://www.w3.org/1999/xlink" x="0px" y="0px" viewBox="0 0 841.9 595.3"
	 style="enable-background:new 0 0 841.9 595.3;" xml:space="preserve">
<style type="text/css">
	.st0{fill-rule:evenodd;clip-rule:evenodd;}
	.st1{fill-rule:evenodd;clip-rule:evenodd;fill:none;stroke:#020202;stroke-width:5;stroke-miterlimit:10;}
	.st2{fill-rule:evenodd;clip-rule:evenodd;fill:none;stroke:#020202;stroke-width:4.5;stroke-miterlimit:10;}
	.st3{fill-rule:evenodd;clip-rule:evenodd;fill:none;stroke:#020202;stroke-width:4;stroke-miterlimit:10;}
</style>
<g id="Layer1">
	<path class="st0" d="M427.3,187.7c-0.1,3.7-0.3,8.4,0.3,11.2c1.5,7.5,7.1,13.5,15.9,11.4c12.2-3,19.8-8.6,30.5-15.3
		c1.1-0.7,2.3-1.4,3.5-2.1c-1.5,2.7-3,5.3-4.5,7.9c-2.8,4.8-5.1,9.5-5.7,14.2c-0.3,2.6-0.3,6.1,1.3,8.4c2.6,3.8,1.2,2.6,6.4,6.3
		c0.2,0.1,1.1,0.5,2.5,0.9c1.7,0.5,4.3,1.1,6.8,1.7c-8.5,4.2-23.8,11.7-28,14.7c-5.7,4.2-14.8,15.6-22.6,28.1
		c-7.8,12.6-14.4,26.2-15.4,34.8c-0.4,3.1-0.6,5.3-0.6,7c0,3.4,0.9,5.3,3.6,7.2c2,1.5,5.3,2.1,9.1,1.9c7.6-0.3,17.4-3.3,21.1-4.4
		c16.6-4.7,111.4-45.4,121.8-48.9c1.2-0.4-0.3-4.8-1.5-4.4c-10.3,3.4-105,44.1-121.6,48.8c-3,0.9-10.4,3.1-16.9,3.9
		c-2.1,0.3-4.1,0.4-5.8,0.2c-1.4-0.1-2.6-0.4-3.4-1c-1.3-0.9-1.7-1.9-1.7-3.5c0-1.6,0.2-3.6,0.6-6.4c0.9-8.1,7.3-21,14.7-32.9
		c7.4-11.9,16-22.8,21.4-26.8c5.7-4.1,33.1-17.1,33.1-17.1c0.9-0.4,1.4-1.4,1.3-2.3c-0.1-1-0.8-1.8-1.8-2c0,0-8.9-2.1-12.9-3.2
		c-0.5-0.1-1.1-0.3-1.3-0.4c-4-2.8-2.9-1.9-5-5c-1-1.4-0.7-3.6-0.5-5.2c0.5-4.2,2.7-8.2,5.1-12.5c2.7-4.6,5.7-9.5,7.8-14.8
		c0.3-0.7,0.2-1.3,0-1.8c-0.1-0.2-1.2-2-3.2-1.2c-0.9,0.4-6.2,3.3-10.1,5.7c-10.3,6.4-17.5,11.9-29.2,14.8
		c-5.7,1.4-9.2-2.8-10.2-7.8c-0.7-3.4-0.1-9.8-0.1-13.2c0-0.5-0.1-1-0.6-1.6c-0.1-0.2-0.8-0.7-1.8-0.9c-1.1-0.3-2.8-0.5-3.2-0.5
		c-1.2,0.1-1.7,0.9-1.9,1.2c-9.4,17.8-19.1,38-30.3,54.8c-20.4,30.7-44.7,61.3-72.6,85.2c-18.6,16-42.3,28.4-67.6,24.8
		c-4.9-0.7-9.2-3.7-12.8-7.6c-5.7-6.2-9.5-14.9-11-22c-0.3-1.3-1.5-2.1-2.7-1.8c-1.3,0.3-2.1,1.5-1.8,2.7
		c1.6,7.8,5.8,17.4,12.1,24.2c4.3,4.8,9.6,8.2,15.5,9.1c26.6,3.8,51.6-9,71.3-25.9c28.3-24.2,52.8-55.2,73.5-86.2
		C408.8,224.2,418.2,205,427.3,187.7z"/>
</g>
<path class="st1" d="M510.2,281.5c-0.8-42.5,63.4-44.6,63.4-1.1C573.6,325.6,510.8,317.6,510.2,281.5z"/>
<path class="st2" d="M522.1,255.3c33.6-18,47.5,42.3,28.2,55.4"/>
<path class="st3" d="M512,269.5c2.2-24,50.8,21.1,52-13"/>
<path class="st3" d="M573.6,289.1c-26.4-14.3-26.1,29.2-43.6,19.6"/>
<g>
	<path d="M523.1,326.5c-0.7,2.5-1.3,4.9-2,7.4c-0.2,0.6-0.4,1.2-0.6,1.7c-0.1,0-0.2,0-0.3-0.1c-0.1-0.3-0.2-0.6-0.3-1
		c-8.4,3.3-16.7,6.6-25,9.9c-0.1-0.1-0.1-0.2-0.2-0.2c0.2-0.2,0.5-0.4,0.6-0.6c0.5-0.6,1.1-1.2,1.3-1.9c1.4-5,2.6-10.1,4-15.2
		c0.8-3.2,1.8-6.3,2.6-9.5c0.1-0.3,0.1-0.6,0.2-0.9c-0.4-0.1-0.7-0.1-1.3-0.2c0.5-0.4,0.8-0.6,1.1-0.8c2.5-1,5.1-2.1,7.7-3.1
		c0.3-0.1,0.7-0.3,1-0.5c0.1,0,0.1,0,0.2,0c-0.2,0.3-0.4,0.6-0.6,1c-0.4,0.6-1,1-1.1,1.7c-1.4,4.9-2.7,9.9-4.1,14.8
		c-0.5,1.7-0.9,3.4-1.3,5.2c1.2-0.5,2.3-0.8,3.3-1.2c4-1.6,8-3.2,12-4.8c0.9-0.3,1.5-0.7,1.9-1.7c0.1-0.3,0.5-0.6,0.8-0.8
		C523.1,326.1,523.1,326.3,523.1,326.5z"/>
	<path d="M468.5,330c-0.4,0-0.7-0.1-0.9-0.1c0-0.1-0.1-0.2-0.1-0.2c0.3-0.2,0.5-0.5,0.9-0.6c6.1-2.4,12.3-4.8,18.4-7.2
		c0.9-0.4,2-0.5,3-0.6c2.3-0.1,3.4,1.2,3,3.6c-0.5,3.6-2.2,6.3-5.1,8.4c-0.3,0.2-0.6,0.5-1,0.7c-0.1,0-0.1,0.1-0.2,0.2
		c0.7,0.1,1.4,0.2,2.1,0.4c1.2,0.3,1.7,1,1.7,2.2c0,2.1-0.6,4-1.8,5.8c-1.4,2.2-2.8,4.3-5,5.6c-2.1,1.3-4.3,2.5-6.6,3.5
		c-3.9,1.7-7.9,3.2-11.9,4.8c-1.6,0.6-3.2,1.2-5,1.7c0.1-0.2,0.3-0.5,0.4-0.6c0.9-0.5,1.2-1.3,1.5-2.2c0.5-1.9,1-3.9,1.5-5.8
		c1.6-6.1,3.3-12.3,4.9-18.4C468.4,330.8,468.5,330.4,468.5,330z M470.1,349.2c3.6-1.6,7-2.9,10.2-4.5c1.6-0.8,2.8-2.1,3.2-3.9
		c0.1-0.6,0.2-1.5-0.2-1.8c-0.4-0.3-1.2-0.2-1.8-0.2c-0.2,0-0.4,0.1-0.6,0.2c-2.8,1.1-5.7,2.2-8.5,3.3c-0.2,0.1-0.6,0.3-0.6,0.5
		C471.2,344.8,470.7,346.9,470.1,349.2z M473.2,337c3.4-1.4,6.5-2.7,9.6-4.1c1.2-0.5,2-1.4,2.3-2.7c0.1-0.6,0.1-1.2,0.1-1.8
		c-0.6,0-1.2-0.1-1.7,0c-2.8,1-5.6,2.1-8.4,3.2c-0.3,0.1-0.7,0.5-0.8,0.8C474,333.8,473.7,335.2,473.2,337z"/>
	<path d="M430.5,345.7c-2.1,3.4-4.4,7-6.6,10.5c-0.2-0.1-0.3-0.2-0.3-0.2c0.1-1.4,0-1.6-1.4-1.5c-2.4,0.1-4.7,0.9-6.8,2
		c-3.1,1.5-5.6,3.8-7.6,6.8c-1.3,2-2.1,4-1.8,6.4c0.1,1,0.7,1.8,1.7,1.8c1.3,0.1,2.7,0.2,3.8-0.3c2.2-0.9,4.2-2.1,6.3-3.2
		c0.9-0.5,1.7-1.1,2.5-1.7c0.7-0.6,1.5-1.1,1.4-2.2c0-0.2,0.2-0.4,0.5-0.8c0.8,2.3,1.6,4.4,2.3,6.5c0.1,0.2-0.3,0.6-0.5,0.8
		c-0.4,0.3-0.9,0.4-1.3,0.6c-2.4,1.5-4.7,3.2-7.1,4.6c-3.2,1.8-6.6,3.4-10.3,3.8c-4.7,0.5-7.5-1.8-7-7c0.3-2.9,1.1-5.8,2.7-8.2
		c1.7-2.7,3.6-5.4,5.8-7.7c3.4-3.5,7.4-6.3,11.9-8.1c2.7-1.1,5.6-1.9,8.5-2.1C428.2,346.3,429.3,346,430.5,345.7z"/>
	<path d="M462.4,330.2c-0.9,3.3-1.7,6.6-2.6,9.9c-0.1,0-0.3,0-0.4-0.1c0-0.3-0.1-0.7-0.1-1.2c-0.9,0.3-1.7,0.5-2.5,0.8
		c-1.9,0.7-3.8,1.5-5.7,2.3c-0.2,0.1-0.5,0.4-0.6,0.7c-1.7,6.6-3.4,13.2-5.1,19.8c-0.2,0.7,0,1.1,0.9,1.1c-0.2,0.2-0.4,0.5-0.7,0.6
		c-3,1.2-5.9,2.3-8.9,3.5c-0.1,0-0.1,0-0.4-0.1c0.2-0.3,0.4-0.5,0.6-0.7c0.4-0.6,1-1.1,1.2-1.7c1.8-6.4,3.5-12.8,5.2-19.2
		c0.1-0.2,0.1-0.4,0.1-0.8c-2.8,1.1-5.4,2.2-8,3.3c-0.3,0.1-0.5,0.6-0.7,0.9c-0.2,0.3-0.4,0.7-0.7,0.9c0.7-3.3,1.4-6.6,2.4-9.9
		c0.1,0,0.3,0,0.4,0.1c0,0.3,0.1,0.7,0.2,1.2c2-0.8,3.9-1.5,5.8-2.3c5.6-2.2,11.2-4.4,16.8-6.6c1-0.4,1.8-0.8,2.2-1.9
		c0.1-0.2,0.3-0.4,0.4-0.6C462.2,330.1,462.3,330.2,462.4,330.2z"/>
</g>
</svg>
