<?xml version="1.0" standalone="no"?>
<!DOCTYPE svg PUBLIC "-//W3C//DTD SVG 1.0//EN" "http://www.w3.org/TR/2001/REC-SVG-20010904/DTD/svg10.dtd">
<svg xmlns="http://www.w3.org/2000/svg" xmlns:xlink="http://www.w3.org/1999/xlink" id="body_1" width="3072" height="2304">

<g transform="matrix(3.6488893 0 0 3.6488893 -0 65.908066)">
	<g>
        <path d="M427.3 187.7C 427.19998 191.4 427 196.09999 427.59998 198.9C 429.09998 206.4 434.69998 212.4 443.49997 210.29999C 455.69998 207.29999 463.29996 201.69998 473.99997 194.99998C 475.09998 194.29999 476.29996 193.59999 477.49997 192.89998C 475.99997 195.59998 474.49997 198.19998 472.99997 200.79997C 470.19998 205.59998 467.89996 210.29997 467.29996 214.99997C 466.99997 217.59998 466.99997 221.09998 468.59995 223.39996C 471.19995 227.19997 469.79996 225.99997 474.99994 229.69997C 475.19995 229.79997 476.09995 230.19997 477.49994 230.59996C 479.19995 231.09996 481.79993 231.69997 484.29993 232.29996C 475.79993 236.49995 460.49994 243.99995 456.29993 246.99995C 450.5999 251.19995 441.49994 262.59995 433.69992 275.09995C 425.89993 287.69995 419.29993 301.29996 418.29993 309.89993C 417.89993 312.99994 417.69992 315.19992 417.69992 316.89993C 417.69992 320.29993 418.5999 322.19992 421.29993 324.09995C 423.29993 325.59995 426.5999 326.19995 430.39993 325.99994C 437.99994 325.69995 447.79993 322.69995 451.49994 321.59995C 468.09995 316.89993 562.89996 276.19995 573.2999 272.69995C 574.49994 272.29996 572.99994 267.89996 571.7999 268.29996C 561.49994 271.69995 466.79993 312.39996 450.19992 317.09995C 447.19992 317.99994 439.79993 320.19995 433.29993 320.99994C 431.19992 321.29993 429.19992 321.39993 427.49994 321.19995C 426.09995 321.09995 424.89993 320.79996 424.09995 320.19995C 422.79996 319.29996 422.39993 318.29996 422.39993 316.69995C 422.39993 315.09995 422.59995 313.09995 422.99994 310.29996C 423.89993 302.19995 430.29993 289.29996 437.69995 277.39996C 445.09995 265.49997 453.69995 254.59996 459.09995 250.59996C 464.79996 246.49995 492.19995 233.49995 492.19995 233.49995C 493.09995 233.09996 493.59995 232.09996 493.49994 231.19995C 493.39993 230.19995 492.69995 229.39995 491.69995 229.19995C 491.69995 229.19995 482.79996 227.09995 478.79996 225.99995C 478.29996 225.89995 477.69995 225.69995 477.49997 225.59996C 473.49997 222.79996 474.59998 223.69997 472.49997 220.59996C 471.49997 219.19997 471.79996 216.99995 471.99997 215.39996C 472.49997 211.19997 474.69998 207.19997 477.09998 202.89996C 479.8 198.29996 482.8 193.39996 484.89996 188.09996C 485.19995 187.39996 485.09998 186.79996 484.89996 186.29996C 484.79996 186.09996 483.69995 184.29996 481.69995 185.09996C 480.79996 185.49995 475.49994 188.39996 471.59995 190.79996C 461.29996 197.19995 454.09995 202.69995 442.39993 205.59996C 436.69992 206.99995 433.19992 202.79996 432.19992 197.79996C 431.4999 194.39996 432.0999 187.99995 432.0999 184.59996C 432.0999 184.09996 431.9999 183.59996 431.4999 182.99995C 431.3999 182.79996 430.69992 182.29996 429.69992 182.09996C 428.5999 181.79996 426.89993 181.59996 426.4999 181.59996C 425.2999 181.69997 424.7999 182.49995 424.5999 182.79996C 415.19992 200.59996 405.4999 220.79996 394.29993 237.59996C 373.89993 268.29996 349.5999 298.89996 321.69992 322.79996C 303.0999 338.79996 279.39993 351.19995 254.09991 347.59995C 249.19992 346.89993 244.89992 343.89993 241.29991 339.99994C 235.59991 333.79993 231.79991 325.09995 230.29991 317.99994C 229.99991 316.69995 228.79991 315.89993 227.59991 316.19995C 226.29991 316.49994 225.49991 317.69995 225.79991 318.89996C 227.39992 326.69995 231.59991 336.29996 237.89992 343.09998C 242.19992 347.89996 247.49992 351.3 253.39992 352.19998C 279.9999 355.99997 304.9999 343.19998 324.69992 326.3C 352.9999 302.09998 377.4999 271.09998 398.19992 240.09999C 408.8 224.2 418.2 205 427.3 187.7z" stroke="none" fill="#000000" fill-rule="nonzero" />
	</g>
    <path d="M510.2 281.5C 509.40002 239 573.60004 236.9 573.60004 280.4C 573.6 325.6 510.8 317.6 510.2 281.5z" stroke="#020202" stroke-width="5" fill="none" />
    <path d="M522.1 255.3C 555.69995 237.3 569.6 297.6 550.3 310.7" stroke="#020202" stroke-width="4.5" fill="none" />
    <path d="M512 269.5C 514.2 245.5 562.8 290.6 564 256.5" stroke="#020202" stroke-width="4" fill="none" />
    <path d="M573.6 289.1C 547.19995 274.80002 547.5 318.30002 530 308.7" stroke="#020202" stroke-width="4" fill="none" />
	<g>
        <path d="M523.1 326.5C 522.39996 329 521.8 331.4 521.1 333.9C 520.89996 334.5 520.69995 335.1 520.5 335.6C 520.4 335.6 520.3 335.6 520.2 335.5C 520.10004 335.2 520 334.9 519.9 334.5C 511.50003 337.8 503.2 341.1 494.90002 344.4C 494.80002 344.3 494.80002 344.19998 494.7 344.19998C 494.90002 343.99997 495.2 343.8 495.30002 343.59998C 495.80002 342.99997 496.40002 342.39996 496.6 341.69998C 498 336.69998 499.2 331.59998 500.6 326.49997C 501.4 323.29996 502.4 320.19998 503.2 316.99997C 503.30002 316.69998 503.30002 316.39996 503.40002 316.09998C 503.00003 315.99997 502.7 315.99997 502.10004 315.89996C 502.60004 315.49997 502.90002 315.29996 503.20004 315.09998C 505.70004 314.09998 508.30005 312.99997 510.90005 311.99997C 511.20004 311.89996 511.60007 311.69998 511.90005 311.49997C 512.00006 311.49997 512.00006 311.49997 512.10004 311.49997C 511.90002 311.79996 511.70004 312.09998 511.50003 312.49997C 511.10004 313.09998 510.50003 313.49997 510.40002 314.19998C 509.00003 319.09998 507.7 324.09998 506.30002 328.99997C 505.80002 330.69998 505.40002 332.39996 505.00003 334.19998C 506.20004 333.69998 507.30002 333.4 508.30002 332.99997C 512.30005 331.39996 516.30005 329.79996 520.30005 328.19998C 521.2001 327.9 521.80005 327.49997 522.2001 326.49997C 522.30005 326.19998 522.7001 325.89996 523.00006 325.69998C 523.1 326.1 523.1 326.3 523.1 326.5z" stroke="none" fill="#000000" fill-rule="nonzero" />
        <path d="M468.5 330C 468.1 330 467.8 329.9 467.6 329.9C 467.6 329.8 467.5 329.69998 467.5 329.69998C 467.8 329.49997 468 329.19998 468.4 329.09998C 474.5 326.69998 480.69998 324.3 486.8 321.89996C 487.69998 321.49997 488.8 321.39996 489.8 321.29996C 492.09998 321.19995 493.19998 322.49997 492.8 324.89996C 492.3 328.49997 490.59998 331.19995 487.69998 333.29996C 487.4 333.49997 487.09998 333.79996 486.69998 333.99997C 486.59998 333.99997 486.59998 334.09998 486.49997 334.19998C 487.19998 334.3 487.89996 334.4 488.59998 334.59998C 489.8 334.89996 490.3 335.59998 490.3 336.8C 490.3 338.9 489.69998 340.8 488.5 342.59998C 487.1 344.8 485.7 346.89996 483.5 348.19998C 481.4 349.49997 479.2 350.69998 476.9 351.69998C 473 353.4 469 354.9 465 356.49997C 463.4 357.09998 461.8 357.69998 460 358.19998C 460.1 357.99997 460.3 357.69998 460.4 357.59998C 461.3 357.09998 461.6 356.3 461.9 355.39996C 462.4 353.49997 462.9 351.49997 463.4 349.59998C 465 343.49997 466.69998 337.3 468.3 331.19998C 468.4 330.8 468.5 330.4 468.5 330zM470.1 349.2C 473.7 347.6 477.1 346.30002 480.30002 344.7C 481.90002 343.90002 483.1 342.6 483.50003 340.80002C 483.60004 340.2 483.70004 339.30002 483.30002 339.00003C 482.90002 338.70004 482.1 338.80002 481.50003 338.80002C 481.30002 338.80002 481.10004 338.90002 480.90002 339.00003C 478.10004 340.10004 475.2 341.20004 472.40002 342.30002C 472.2 342.40002 471.80002 342.6 471.80002 342.80002C 471.2 344.8 470.7 346.9 470.1 349.2zM473.2 337C 476.6 335.6 479.7 334.3 482.80002 332.9C 484.00003 332.4 484.80002 331.5 485.1 330.19998C 485.2 329.59998 485.2 328.99997 485.2 328.4C 484.6 328.4 484 328.3 483.5 328.4C 480.7 329.4 477.9 330.5 475.1 331.6C 474.80002 331.7 474.4 332.1 474.30002 332.4C 474 333.8 473.7 335.2 473.2 337z" stroke="none" fill="#000000" fill-rule="nonzero" />
        <path d="M430.5 345.7C 428.4 349.1 426.1 352.7 423.9 356.2C 423.69998 356.1 423.6 356 423.6 356C 423.7 354.6 423.6 354.4 422.2 354.5C 419.80002 354.6 417.5 355.4 415.40002 356.5C 412.30002 358 409.80002 360.3 407.80002 363.3C 406.50003 365.3 405.7 367.3 406.00003 369.69998C 406.10004 370.69998 406.70004 371.49997 407.70004 371.49997C 409.00003 371.59998 410.40005 371.69998 411.50003 371.19998C 413.70004 370.3 415.70004 369.09998 417.80002 367.99997C 418.7 367.49997 419.50003 366.89996 420.30002 366.29996C 421.00003 365.69995 421.80002 365.19995 421.7 364.09995C 421.7 363.89993 421.90002 363.69995 422.2 363.29996C 423 365.59995 423.80002 367.69995 424.5 369.79996C 424.6 369.99997 424.2 370.39996 424 370.59995C 423.6 370.89993 423.1 370.99994 422.7 371.19995C 420.30002 372.69995 418 374.39996 415.6 375.79996C 412.4 377.59995 409 379.19995 405.30002 379.59995C 400.6 380.09995 397.80002 377.79996 398.30002 372.59995C 398.6 369.69995 399.40002 366.79996 401.00003 364.39993C 402.70004 361.69992 404.60004 358.99994 406.80002 356.69992C 410.2 353.19992 414.2 350.39993 418.7 348.5999C 421.40002 347.4999 424.30002 346.69992 427.2 346.4999C 428.2 346.3 429.3 346 430.5 345.7z" stroke="none" fill="#000000" fill-rule="nonzero" />
        <path d="M462.4 330.2C 461.5 333.5 460.69998 336.80002 459.8 340.1C 459.69998 340.1 459.5 340.1 459.4 340C 459.4 339.7 459.3 339.3 459.3 338.8C 458.4 339.09998 457.59998 339.3 456.8 339.59998C 454.9 340.3 453 341.09998 451.09998 341.89996C 450.89996 341.99997 450.59998 342.29996 450.49997 342.59998C 448.79996 349.19998 447.09998 355.8 445.39996 362.39996C 445.19995 363.09998 445.39996 363.49997 446.29996 363.49997C 446.09995 363.69998 445.89996 363.99997 445.59995 364.09998C 442.59995 365.3 439.69995 366.39996 436.69995 367.59998C 436.59995 367.59998 436.59995 367.59998 436.29996 367.49997C 436.49997 367.19998 436.69995 366.99997 436.89996 366.79996C 437.29996 366.19995 437.89996 365.69995 438.09998 365.09995C 439.89996 358.69995 441.59998 352.29996 443.3 345.89993C 443.4 345.69992 443.4 345.49994 443.4 345.09995C 440.6 346.19995 438 347.29996 435.4 348.39993C 435.1 348.49994 434.9 348.99994 434.69998 349.29993C 434.49997 349.5999 434.3 349.99994 433.99997 350.19992C 434.69998 346.89993 435.39996 343.5999 436.39996 340.29993C 436.49997 340.29993 436.69995 340.29993 436.79996 340.39993C 436.79996 340.69992 436.89996 341.09995 436.99997 341.59995C 438.99997 340.79996 440.89996 340.09995 442.79996 339.29996C 448.39996 337.09995 453.99997 334.89996 459.59995 332.69995C 460.59995 332.29996 461.39993 331.89996 461.79996 330.79996C 461.89996 330.59995 462.09995 330.39996 462.19995 330.19995C 462.2 330.1 462.3 330.2 462.4 330.2z" stroke="none" fill="#000000" fill-rule="nonzero" />
	</g>
</g>
</svg>